<?xml version="1.0" encoding="UTF-8" standalone="no"?>
<svg width="90px" height="229px" viewBox="0 0 90 229" version="1.1" xmlns="http://www.w3.org/2000/svg" xmlns:xlink="http://www.w3.org/1999/xlink">
    <!-- Generator: Sketch 49.2 (51160) - http://www.bohemiancoding.com/sketch -->
    <title>stars</title>
    <desc>Created with Sketch.</desc>
    <defs></defs>
    <g id="300BA" stroke="none" stroke-width="1" fill="none" fill-rule="evenodd">
        <g id="-stars-sprite-copy">
            <g id="stars">
                <g id="0" fill="#DADADA">
                    <polygon id="Star" points="8.76629226 12.7786646 3.87662941 15.3501901 4.81047192 9.9036116 0.854651576 6.04632329 6.32146084 5.25167819 8.76629226 0.296217367 11.2111237 5.25167819 16.677933 6.04632329 12.7221126 9.9036116 13.6559551 15.3501901"></polygon>
                    <polygon id="Star-Copy" points="26.7094097 12.4824472 21.8197468 15.0539727 22.7535893 9.60739423 18.797769 5.75010592 24.2645782 4.95546082 26.7094097 0 29.1542411 4.95546082 34.6210503 5.75010592 30.66523 9.60739423 31.5990725 15.0539727"></polygon>
                    <polygon id="Star-Copy-2" points="45.1254763 12.4824472 40.2358135 15.0539727 41.169656 9.60739423 37.2138357 5.75010592 42.6806449 4.95546082 45.1254763 0 47.5703078 4.95546082 53.037117 5.75010592 49.0812967 9.60739423 50.0151392 15.0539727"></polygon>
                    <polygon id="Star-Copy-3" points="63.541543 12.4824472 58.6518802 15.0539727 59.5857227 9.60739423 55.6299024 5.75010592 61.0967116 4.95546082 63.541543 0 65.9863745 4.95546082 71.4531837 5.75010592 67.4973634 9.60739423 68.4312059 15.0539727"></polygon>
                    <polygon id="Star-Copy-4" points="81.9576097 12.4824472 77.0679469 15.0539727 78.0017894 9.60739423 74.045969 5.75010592 79.5127783 4.95546082 81.9576097 0 84.4024412 4.95546082 89.8692504 5.75010592 85.9134301 9.60739423 86.8472726 15.0539727"></polygon>
                </g>
                <g id="0,5" transform="translate(0.000000, 21.485411)">
                    <polygon id="Star" fill="#DADADA" points="8.76629226 12.7786646 3.87662941 15.3501901 4.81047192 9.9036116 0.854651576 6.04632329 6.32146084 5.25167819 8.76629226 0.296217367 11.2111237 5.25167819 16.677933 6.04632329 12.7221126 9.9036116 13.6559551 15.3501901"></polygon>
                    <path d="M9.42424194,13.255162 L4.23423275,15.9846429 L5.22652276,10.1971729 L1.02311482,6.09846397 L6.83208172,5.25408349 L9.42424194,-5.06261699e-14 L9.42424194,13.255162 Z" id="Combined-Shape" fill="#ffa300"></path>
                    <polygon id="Star-Copy" fill="#DADADA" points="26.7094097 12.4824472 21.8197468 15.0539727 22.7535893 9.60739423 18.797769 5.75010592 24.2645782 4.95546082 26.7094097 0 29.1542411 4.95546082 34.6210503 5.75010592 30.66523 9.60739423 31.5990725 15.0539727"></polygon>
                    <polygon id="Star-Copy-2" fill="#DADADA" points="45.1254763 12.4824472 40.2358135 15.0539727 41.169656 9.60739423 37.2138357 5.75010592 42.6806449 4.95546082 45.1254763 0 47.5703078 4.95546082 53.037117 5.75010592 49.0812967 9.60739423 50.0151392 15.0539727"></polygon>
                    <polygon id="Star-Copy-3" fill="#DADADA" points="63.541543 12.4824472 58.6518802 15.0539727 59.5857227 9.60739423 55.6299024 5.75010592 61.0967116 4.95546082 63.541543 0 65.9863745 4.95546082 71.4531837 5.75010592 67.4973634 9.60739423 68.4312059 15.0539727"></polygon>
                    <polygon id="Star-Copy-4" fill="#DADADA" points="81.9576097 12.4824472 77.0679469 15.0539727 78.0017894 9.60739423 74.045969 5.75010592 79.5127783 4.95546082 81.9576097 0 84.4024412 4.95546082 89.8692504 5.75010592 85.9134301 9.60739423 86.8472726 15.0539727"></polygon>
                </g>
                <g id="1" transform="translate(0.000000, 42.970822)">
                    <polygon id="Star" fill="#ffa300" points="8.76629226 12.7786646 3.87662941 15.3501901 4.81047192 9.9036116 0.854651576 6.04632329 6.32146084 5.25167819 8.76629226 0.296217367 11.2111237 5.25167819 16.677933 6.04632329 12.7221126 9.9036116 13.6559551 15.3501901"></polygon>
                    <polygon id="Star-Copy" fill="#DADADA" points="26.7094097 12.4824472 21.8197468 15.0539727 22.7535893 9.60739423 18.797769 5.75010592 24.2645782 4.95546082 26.7094097 0 29.1542411 4.95546082 34.6210503 5.75010592 30.66523 9.60739423 31.5990725 15.0539727"></polygon>
                    <polygon id="Star-Copy-2" fill="#DADADA" points="45.1254763 12.4824472 40.2358135 15.0539727 41.169656 9.60739423 37.2138357 5.75010592 42.6806449 4.95546082 45.1254763 0 47.5703078 4.95546082 53.037117 5.75010592 49.0812967 9.60739423 50.0151392 15.0539727"></polygon>
                    <polygon id="Star-Copy-3" fill="#DADADA" points="63.541543 12.4824472 58.6518802 15.0539727 59.5857227 9.60739423 55.6299024 5.75010592 61.0967116 4.95546082 63.541543 0 65.9863745 4.95546082 71.4531837 5.75010592 67.4973634 9.60739423 68.4312059 15.0539727"></polygon>
                    <polygon id="Star-Copy-4" fill="#DADADA" points="81.9576097 12.4824472 77.0679469 15.0539727 78.0017894 9.60739423 74.045969 5.75010592 79.5127783 4.95546082 81.9576097 0 84.4024412 4.95546082 89.8692504 5.75010592 85.9134301 9.60739423 86.8472726 15.0539727"></polygon>
                </g>
                <g id="1,5" transform="translate(0.000000, 64.456233)">
                    <polygon id="Star" fill="#ffa300" points="8.76629226 12.7786646 3.87662941 15.3501901 4.81047192 9.9036116 0.854651576 6.04632329 6.32146084 5.25167819 8.76629226 0.296217367 11.2111237 5.25167819 16.677933 6.04632329 12.7221126 9.9036116 13.6559551 15.3501901"></polygon>
                    <polygon id="Star-Copy" fill="#DADADA" points="26.7094097 12.4824472 21.8197468 15.0539727 22.7535893 9.60739423 18.797769 5.75010592 24.2645782 4.95546082 26.7094097 0 29.1542411 4.95546082 34.6210503 5.75010592 30.66523 9.60739423 31.5990725 15.0539727"></polygon>
                    <polygon id="Star-Copy-2" fill="#DADADA" points="45.1254763 12.4824472 40.2358135 15.0539727 41.169656 9.60739423 37.2138357 5.75010592 42.6806449 4.95546082 45.1254763 0 47.5703078 4.95546082 53.037117 5.75010592 49.0812967 9.60739423 50.0151392 15.0539727"></polygon>
                    <polygon id="Star-Copy-3" fill="#DADADA" points="63.541543 12.4824472 58.6518802 15.0539727 59.5857227 9.60739423 55.6299024 5.75010592 61.0967116 4.95546082 63.541543 0 65.9863745 4.95546082 71.4531837 5.75010592 67.4973634 9.60739423 68.4312059 15.0539727"></polygon>
                    <polygon id="Star-Copy-4" fill="#DADADA" points="81.9576097 12.4824472 77.0679469 15.0539727 78.0017894 9.60739423 74.045969 5.75010592 79.5127783 4.95546082 81.9576097 0 84.4024412 4.95546082 89.8692504 5.75010592 85.9134301 9.60739423 86.8472726 15.0539727"></polygon>
                    <path d="M26.8171938,13.255162 L21.6271846,15.9846429 L22.6194746,10.1971729 L18.4160667,6.09846397 L24.2250336,5.25408349 L26.8171938,-5.32907052e-14 L26.8171938,13.255162 Z" id="Combined-Shape-Copy" fill="#ffa300"></path>
                </g>
                <g id="2" transform="translate(0.000000, 85.941645)">
                    <polygon id="Star" fill="#ffa300" points="8.76629226 12.7786646 3.87662941 15.3501901 4.81047192 9.9036116 0.854651576 6.04632329 6.32146084 5.25167819 8.76629226 0.296217367 11.2111237 5.25167819 16.677933 6.04632329 12.7221126 9.9036116 13.6559551 15.3501901"></polygon>
                    <polygon id="Star-Copy" fill="#ffa300" points="26.7094097 12.4824472 21.8197468 15.0539727 22.7535893 9.60739423 18.797769 5.75010592 24.2645782 4.95546082 26.7094097 0 29.1542411 4.95546082 34.6210503 5.75010592 30.66523 9.60739423 31.5990725 15.0539727"></polygon>
                    <polygon id="Star-Copy-2" fill="#DADADA" points="45.1254763 12.4824472 40.2358135 15.0539727 41.169656 9.60739423 37.2138357 5.75010592 42.6806449 4.95546082 45.1254763 0 47.5703078 4.95546082 53.037117 5.75010592 49.0812967 9.60739423 50.0151392 15.0539727"></polygon>
                    <polygon id="Star-Copy-3" fill="#DADADA" points="63.541543 12.4824472 58.6518802 15.0539727 59.5857227 9.60739423 55.6299024 5.75010592 61.0967116 4.95546082 63.541543 0 65.9863745 4.95546082 71.4531837 5.75010592 67.4973634 9.60739423 68.4312059 15.0539727"></polygon>
                    <polygon id="Star-Copy-4" fill="#DADADA" points="81.9576097 12.4824472 77.0679469 15.0539727 78.0017894 9.60739423 74.045969 5.75010592 79.5127783 4.95546082 81.9576097 0 84.4024412 4.95546082 89.8692504 5.75010592 85.9134301 9.60739423 86.8472726 15.0539727"></polygon>
                </g>
                <g id="2,5" transform="translate(0.000000, 107.427056)">
                    <polygon id="Star" fill="#ffa300" points="8.76629226 12.7786646 3.87662941 15.3501901 4.81047192 9.9036116 0.854651576 6.04632329 6.32146084 5.25167819 8.76629226 0.296217367 11.2111237 5.25167819 16.677933 6.04632329 12.7221126 9.9036116 13.6559551 15.3501901"></polygon>
                    <polygon id="Star-Copy" fill="#ffa300" points="26.7094097 12.4824472 21.8197468 15.0539727 22.7535893 9.60739423 18.797769 5.75010592 24.2645782 4.95546082 26.7094097 0 29.1542411 4.95546082 34.6210503 5.75010592 30.66523 9.60739423 31.5990725 15.0539727"></polygon>
                    <polygon id="Star-Copy-2" fill="#DADADA" points="45.1254763 12.4824472 40.2358135 15.0539727 41.169656 9.60739423 37.2138357 5.75010592 42.6806449 4.95546082 45.1254763 0 47.5703078 4.95546082 53.037117 5.75010592 49.0812967 9.60739423 50.0151392 15.0539727"></polygon>
                    <polygon id="Star-Copy-3" fill="#DADADA" points="63.541543 12.4824472 58.6518802 15.0539727 59.5857227 9.60739423 55.6299024 5.75010592 61.0967116 4.95546082 63.541543 0 65.9863745 4.95546082 71.4531837 5.75010592 67.4973634 9.60739423 68.4312059 15.0539727"></polygon>
                    <polygon id="Star-Copy-4" fill="#DADADA" points="81.9576097 12.4824472 77.0679469 15.0539727 78.0017894 9.60739423 74.045969 5.75010592 79.5127783 4.95546082 81.9576097 0 84.4024412 4.95546082 89.8692504 5.75010592 85.9134301 9.60739423 86.8472726 15.0539727"></polygon>
                    <path d="M45.2332605,13.255162 L40.0432513,15.9846429 L41.0355413,10.1971729 L36.8321334,6.09846397 L42.6411003,5.25408349 L45.2332605,-5.15143483e-14 L45.2332605,13.255162 Z" id="Combined-Shape-Copy-2" fill="#ffa300"></path>
                </g>
                <g id="3" transform="translate(0.000000, 128.912467)">
                    <polygon id="Star" fill="#ffa300" points="8.76629226 12.7786646 3.87662941 15.3501901 4.81047192 9.9036116 0.854651576 6.04632329 6.32146084 5.25167819 8.76629226 0.296217367 11.2111237 5.25167819 16.677933 6.04632329 12.7221126 9.9036116 13.6559551 15.3501901"></polygon>
                    <polygon id="Star-Copy" fill="#ffa300" points="26.7094097 12.4824472 21.8197468 15.0539727 22.7535893 9.60739423 18.797769 5.75010592 24.2645782 4.95546082 26.7094097 0 29.1542411 4.95546082 34.6210503 5.75010592 30.66523 9.60739423 31.5990725 15.0539727"></polygon>
                    <polygon id="Star-Copy-2" fill="#ffa300" points="45.1254763 12.4824472 40.2358135 15.0539727 41.169656 9.60739423 37.2138357 5.75010592 42.6806449 4.95546082 45.1254763 0 47.5703078 4.95546082 53.037117 5.75010592 49.0812967 9.60739423 50.0151392 15.0539727"></polygon>
                    <polygon id="Star-Copy-3" fill="#DADADA" points="63.541543 12.4824472 58.6518802 15.0539727 59.5857227 9.60739423 55.6299024 5.75010592 61.0967116 4.95546082 63.541543 0 65.9863745 4.95546082 71.4531837 5.75010592 67.4973634 9.60739423 68.4312059 15.0539727"></polygon>
                    <polygon id="Star-Copy-4" fill="#DADADA" points="81.9576097 12.4824472 77.0679469 15.0539727 78.0017894 9.60739423 74.045969 5.75010592 79.5127783 4.95546082 81.9576097 0 84.4024412 4.95546082 89.8692504 5.75010592 85.9134301 9.60739423 86.8472726 15.0539727"></polygon>
                </g>
                <g id="3,5" transform="translate(0.000000, 150.397878)">
                    <polygon id="Star" fill="#ffa300" points="8.76629226 12.7786646 3.87662941 15.3501901 4.81047192 9.9036116 0.854651576 6.04632329 6.32146084 5.25167819 8.76629226 0.296217367 11.2111237 5.25167819 16.677933 6.04632329 12.7221126 9.9036116 13.6559551 15.3501901"></polygon>
                    <polygon id="Star-Copy" fill="#ffa300" points="26.7094097 12.4824472 21.8197468 15.0539727 22.7535893 9.60739423 18.797769 5.75010592 24.2645782 4.95546082 26.7094097 0 29.1542411 4.95546082 34.6210503 5.75010592 30.66523 9.60739423 31.5990725 15.0539727"></polygon>
                    <polygon id="Star-Copy-2" fill="#ffa300" points="45.1254763 12.4824472 40.2358135 15.0539727 41.169656 9.60739423 37.2138357 5.75010592 42.6806449 4.95546082 45.1254763 0 47.5703078 4.95546082 53.037117 5.75010592 49.0812967 9.60739423 50.0151392 15.0539727"></polygon>
                    <polygon id="Star-Copy-3" fill="#DADADA" points="63.541543 12.4824472 58.6518802 15.0539727 59.5857227 9.60739423 55.6299024 5.75010592 61.0967116 4.95546082 63.541543 0 65.9863745 4.95546082 71.4531837 5.75010592 67.4973634 9.60739423 68.4312059 15.0539727"></polygon>
                    <polygon id="Star-Copy-4" fill="#DADADA" points="81.9576097 12.4824472 77.0679469 15.0539727 78.0017894 9.60739423 74.045969 5.75010592 79.5127783 4.95546082 81.9576097 0 84.4024412 4.95546082 89.8692504 5.75010592 85.9134301 9.60739423 86.8472726 15.0539727"></polygon>
                    <path d="M63.6493272,13.255162 L58.459318,15.9846429 L59.451608,10.1971729 L55.2482001,6.09846397 L61.057167,5.25408349 L63.6493272,-5.77315973e-14 L63.6493272,13.255162 Z" id="Combined-Shape-Copy-3" fill="#ffa300"></path>
                </g>
                <g id="4" transform="translate(0.000000, 171.883289)">
                    <polygon id="Star" fill="#ffa300" points="8.76629226 12.7786646 3.87662941 15.3501901 4.81047192 9.9036116 0.854651576 6.04632329 6.32146084 5.25167819 8.76629226 0.296217367 11.2111237 5.25167819 16.677933 6.04632329 12.7221126 9.9036116 13.6559551 15.3501901"></polygon>
                    <polygon id="Star-Copy" fill="#ffa300" points="26.7094097 12.4824472 21.8197468 15.0539727 22.7535893 9.60739423 18.797769 5.75010592 24.2645782 4.95546082 26.7094097 0 29.1542411 4.95546082 34.6210503 5.75010592 30.66523 9.60739423 31.5990725 15.0539727"></polygon>
                    <polygon id="Star-Copy-2" fill="#ffa300" points="45.1254763 12.4824472 40.2358135 15.0539727 41.169656 9.60739423 37.2138357 5.75010592 42.6806449 4.95546082 45.1254763 0 47.5703078 4.95546082 53.037117 5.75010592 49.0812967 9.60739423 50.0151392 15.0539727"></polygon>
                    <polygon id="Star-Copy-3" fill="#ffa300" points="63.541543 12.4824472 58.6518802 15.0539727 59.5857227 9.60739423 55.6299024 5.75010592 61.0967116 4.95546082 63.541543 0 65.9863745 4.95546082 71.4531837 5.75010592 67.4973634 9.60739423 68.4312059 15.0539727"></polygon>
                    <polygon id="Star-Copy-4" fill="#DADADA" points="81.9576097 12.4824472 77.0679469 15.0539727 78.0017894 9.60739423 74.045969 5.75010592 79.5127783 4.95546082 81.9576097 0 84.4024412 4.95546082 89.8692504 5.75010592 85.9134301 9.60739423 86.8472726 15.0539727"></polygon>
                </g>
                <g id="4,5" transform="translate(0.000000, 193.368700)">
                    <polygon id="Star" fill="#ffa300" points="8.76629226 12.7786646 3.87662941 15.3501901 4.81047192 9.9036116 0.854651576 6.04632329 6.32146084 5.25167819 8.76629226 0.296217367 11.2111237 5.25167819 16.677933 6.04632329 12.7221126 9.9036116 13.6559551 15.3501901"></polygon>
                    <polygon id="Star-Copy" fill="#ffa300" points="26.7094097 12.4824472 21.8197468 15.0539727 22.7535893 9.60739423 18.797769 5.75010592 24.2645782 4.95546082 26.7094097 0 29.1542411 4.95546082 34.6210503 5.75010592 30.66523 9.60739423 31.5990725 15.0539727"></polygon>
                    <polygon id="Star-Copy-2" fill="#ffa300" points="45.1254763 12.4824472 40.2358135 15.0539727 41.169656 9.60739423 37.2138357 5.75010592 42.6806449 4.95546082 45.1254763 0 47.5703078 4.95546082 53.037117 5.75010592 49.0812967 9.60739423 50.0151392 15.0539727"></polygon>
                    <polygon id="Star-Copy-3" fill="#ffa300" points="63.541543 12.4824472 58.6518802 15.0539727 59.5857227 9.60739423 55.6299024 5.75010592 61.0967116 4.95546082 63.541543 0 65.9863745 4.95546082 71.4531837 5.75010592 67.4973634 9.60739423 68.4312059 15.0539727"></polygon>
                    <polygon id="Star-Copy-4" fill="#DADADA" points="81.9576097 12.4824472 77.0679469 15.0539727 78.0017894 9.60739423 74.045969 5.75010592 79.5127783 4.95546082 81.9576097 0 84.4024412 4.95546082 89.8692504 5.75010592 85.9134301 9.60739423 86.8472726 15.0539727"></polygon>
                    <path d="M82.4337159,13.255162 L77.2437067,15.9846429 L78.2359967,10.1971729 L74.0325887,6.09846397 L79.8415556,5.25408349 L82.4337159,-4.88498131e-14 L82.4337159,13.255162 Z" id="Combined-Shape-Copy-4" fill="#ffa300"></path>
                </g>
                <g id="5" transform="translate(0.000000, 212.807882)" fill="#ffa300">
                    <polygon id="Star" points="8.76629226 12.7786646 3.87662941 15.3501901 4.81047192 9.9036116 0.854651576 6.04632329 6.32146084 5.25167819 8.76629226 0.296217367 11.2111237 5.25167819 16.677933 6.04632329 12.7221126 9.9036116 13.6559551 15.3501901"></polygon>
                    <polygon id="Star-Copy" points="26.7094097 12.4824472 21.8197468 15.0539727 22.7535893 9.60739423 18.797769 5.75010592 24.2645782 4.95546082 26.7094097 0 29.1542411 4.95546082 34.6210503 5.75010592 30.66523 9.60739423 31.5990725 15.0539727"></polygon>
                    <polygon id="Star-Copy-2" points="45.1254763 12.4824472 40.2358135 15.0539727 41.169656 9.60739423 37.2138357 5.75010592 42.6806449 4.95546082 45.1254763 0 47.5703078 4.95546082 53.037117 5.75010592 49.0812967 9.60739423 50.0151392 15.0539727"></polygon>
                    <polygon id="Star-Copy-3" points="63.541543 12.4824472 58.6518802 15.0539727 59.5857227 9.60739423 55.6299024 5.75010592 61.0967116 4.95546082 63.541543 0 65.9863745 4.95546082 71.4531837 5.75010592 67.4973634 9.60739423 68.4312059 15.0539727"></polygon>
                    <polygon id="Star-Copy-4" points="81.9576097 12.4824472 77.0679469 15.0539727 78.0017894 9.60739423 74.045969 5.75010592 79.5127783 4.95546082 81.9576097 0 84.4024412 4.95546082 89.8692504 5.75010592 85.9134301 9.60739423 86.8472726 15.0539727"></polygon>
                </g>
            </g>
        </g>
    </g>
</svg>